<?xml version="1.0" encoding="utf-8"?>
<!-- Generator: Adobe Illustrator 27.0.1, SVG Export Plug-In . SVG Version: 6.00 Build 0)  -->
<svg version="1.1" id="Layer_1" xmlns="http://www.w3.org/2000/svg" xmlns:xlink="http://www.w3.org/1999/xlink" x="0px" y="0px"
	 viewBox="0 0 1000 1000" style="enable-background:new 0 0 1000 1000;" xml:space="preserve">
<style type="text/css">
	.st0{fill:none;stroke:#000000;stroke-width:5;stroke-linecap:round;stroke-linejoin:round;stroke-miterlimit:10;}
	.st1{fill:#FFFFFF;}
	.st2{fill:#F5F5F5;}
	.st3{fill:none;stroke:#000000;stroke-width:4;stroke-linecap:round;stroke-linejoin:round;stroke-miterlimit:10;}
	.st4{fill:#191B1A;}
	.st5{fill:#A84582;}
	.st6{fill:none;stroke:#000000;stroke-width:6;stroke-linecap:round;stroke-linejoin:round;stroke-miterlimit:10;}
	.st7{fill:#CB3272;}
	.st8{fill:#E58800;stroke:#000000;stroke-width:4;stroke-linecap:round;stroke-linejoin:round;stroke-miterlimit:10;}
	.st9{fill:none;stroke:#5A1A3C;stroke-width:4;stroke-linecap:round;stroke-linejoin:round;stroke-miterlimit:10;}
	.st10{fill:none;stroke:#FFFAFD;stroke-width:4;stroke-linecap:round;stroke-linejoin:round;stroke-miterlimit:10;}
	.st11{fill:#FE9C00;}
	.st12{fill:#E58800;}
	.st13{fill:#601D43;}
	.st14{fill:#191B1A;stroke:#000000;stroke-width:4;stroke-linecap:round;stroke-linejoin:round;stroke-miterlimit:10;}
	.st15{fill:#BFB3C1;}
	.st16{fill:#E5E5E5;}
	.st17{opacity:0.57;fill:#E58800;enable-background:new    ;}
	.st18{fill:none;stroke:#FFFAFD;stroke-width:2;stroke-linecap:round;stroke-linejoin:round;stroke-miterlimit:10;}
	.st19{fill:#191B1A;stroke:#191B1A;stroke-miterlimit:10;}
	.st20{fill:#FFFFFF;stroke:#000000;stroke-miterlimit:10;}
	.st21{fill:#191B1A;stroke:#000000;stroke-miterlimit:10;}
	.st22{fill:#5A1A3C;stroke:#000000;stroke-width:1;stroke-miterlimit:10.0003;}
	.st23{fill:#B8FF52;stroke:#000000;stroke-width:2;stroke-linecap:round;stroke-linejoin:round;stroke-miterlimit:10;}
	
		.st24{opacity:0.29;fill:#F5F5F5;stroke:#FFFAFD;stroke-width:2;stroke-linecap:round;stroke-linejoin:round;stroke-miterlimit:10;enable-background:new    ;}
	.st25{font-family:'JosefinSans-BoldItalic';}
	.st26{font-size:76.8642px;}
</style>
<path class="st0" d="M599.3,216.3c10.8,1.7,30.9,6.5,47.7,22.7c11.7,11.2,20.6,26.8,26,56c11.9,64.2-4.6,132.3-13.5,163.5"/>
<path class="st1" d="M592.7,256l17.4-4.7l35.8,133.5l-17.4,4.7L592.7,256z"/>
<path class="st2" d="M601.8,276.4l13.8-4.2l-2-7.6l-16.1,3.7L601.8,276.4z"/>
<path class="st2" d="M633.7,387.8L598,254.6l-5.3,1.4l35.8,133.5l17.4-4.7l-0.1-0.3L633.7,387.8z"/>
<path class="st3" d="M592.7,256l17.4-4.7l35.8,133.5l-17.4,4.7L592.7,256z"/>
<path class="st2" d="M560.3,221.1c-0.6,2.9,1,5.9,3.8,7c4.1,1.7,9.9,5.1,14.4,11.6c4.5,6.6,7.8,15.7,9.7,21.9
	c1.1,3.7,5.3,5.5,8.7,3.9c2.9-1.4,4.3-4.6,3.3-7.6c-2.6-8.1-8-23.5-13.2-30.7c-4.2-5.8-12.2-9.7-18-12c-3.7-1.4-7.8,0.8-8.5,4.7
	L560.3,221.1L560.3,221.1z"/>
<path class="st3" d="M560.3,221.1c-0.6,2.9,1,5.9,3.8,7c4.1,1.7,9.9,5.1,14.4,11.6c4.5,6.6,7.8,15.7,9.7,21.9
	c1.1,3.7,5.3,5.5,8.7,3.9l0,0c2.9-1.4,4.3-4.6,3.3-7.6c-2.6-8.1-8-23.5-13.2-30.7c-4.2-5.8-12.2-9.7-18-12c-3.7-1.4-7.8,0.8-8.5,4.7
	L560.3,221.1L560.3,221.1z"/>
<path class="st4" d="M582.6,225.5c0-7.9-6.4-14.4-14.4-14.4c-1.8,0-3.4,0.3-5,0.9l-19.1,5.4l8,28.7l18.7-6.6
	C577.5,238.3,582.6,232.5,582.6,225.5L582.6,225.5z"/>
<path class="st5" d="M553.3,221.2l19.1-5.4c1.6-0.6,3.3-0.9,5-0.9c0.2,0,0.3,0,0.5,0c-2.6-2.3-5.9-3.7-9.6-3.7c-1.8,0-3.4,0.3-5,0.9
	l-19.1,5.4l8,28.7l7.4-2.6L553.3,221.2L553.3,221.2z"/>
<path class="st3" d="M582.6,225.5c0-7.9-6.4-14.4-14.4-14.4c-1.8,0-3.4,0.3-5,0.9l-19.1,5.4l8,28.7l18.7-6.6
	C577.5,238.3,582.6,232.5,582.6,225.5L582.6,225.5z"/>
<circle class="st4" cx="543.7" cy="233.4" r="17.8"/>
<circle class="st6" cx="543.7" cy="233.4" r="17.8"/>
<ellipse class="st2" cx="258.5" cy="732.5" rx="74.6" ry="7.5"/>
<ellipse class="st2" cx="713.4" cy="730.5" rx="74.6" ry="7.5"/>
<path class="st7" d="M657.3,519.8l27.6-7.4l5.7,21.1L663,541L657.3,519.8z"/>
<path class="st8" d="M657.3,519.8l27.6-7.4l5.7,21.1L663,541L657.3,519.8z"/>
<path class="st2" d="M799.7,695.3c4.8-6.1,8.7-12.8,11.6-19.9l-49-28.3c-11.7-6.8-19-19.3-19-32.9v-57c-3.8-0.5-7.6-0.8-11.4-0.8
	c-4,0-7.8,0.3-11.7,0.8v57c0,13.6-7.2,26.1-19,32.9l-48.9,28.2c3,7.1,6.9,13.8,11.6,19.9l48.8-28.2c11.7-6.8,26.2-6.8,37.9,0
	L799.7,695.3L799.7,695.3z"/>
<path class="st4" d="M753.8,661.9c-6.7-3.9-14.3-5.9-22-5.9s-15.3,2-22,5.9l-44.1,25.5c-2.1-3.1-3.9-6.3-5.6-9.6l44.2-25.5
	c13.6-7.8,22-22.4,22-38.1v-51.6c1.9-0.1,3.8-0.2,5.7-0.2c1.8,0,3.6,0.1,5.4,0.2v51.6c0,15.7,8.4,30.2,22,38.1l44.3,25.6
	c-1.6,3.3-3.5,6.5-5.6,9.6L753.8,661.9L753.8,661.9z"/>
<path class="st3" d="M799.7,695.3c4.8-6.1,8.7-12.8,11.6-19.9l-49-28.3c-11.7-6.8-19-19.3-19-32.9v-57c-3.8-0.5-7.6-0.8-11.4-0.8
	c-4,0-7.8,0.3-11.7,0.8v57c0,13.6-7.2,26.1-19,32.9l-48.9,28.2c3,7.1,6.9,13.8,11.6,19.9l48.8-28.2c11.7-6.8,26.2-6.8,37.9,0
	L799.7,695.3L799.7,695.3z"/>
<path class="st4" d="M731.9,556.4c-47.5,0-86,38.5-86,86s38.5,86,86,86s86-38.5,86-86S779.4,556.4,731.9,556.4z M731.9,699.1
	c-31.3,0-56.6-25.4-56.6-56.6s25.4-56.6,56.6-56.6s56.6,25.4,56.6,56.6S763.2,699.1,731.9,699.1z"/>
<circle class="st9" cx="731.9" cy="642.4" r="86"/>
<circle class="st9" cx="731.9" cy="642.4" r="86"/>
<path class="st3" d="M731.9,556.4c-47.5,0-86,38.5-86,86s38.5,86,86,86s86-38.5,86-86S779.4,556.4,731.9,556.4z M731.9,699.1
	c-31.3,0-56.6-25.4-56.6-56.6s25.4-56.6,56.6-56.6s56.6,25.4,56.6,56.6S763.2,699.1,731.9,699.1z"/>
<circle class="st3" cx="731.9" cy="642.4" r="86"/>
<path class="st10" d="M778,580.8c18.7,14.1,30.9,36.4,30.9,61.6 M754.8,568.9c3.9,1.2,7.7,2.7,11.3,4.5"/>
<circle class="st9" cx="731.9" cy="642.4" r="11"/>
<path class="st11" d="M747.7,637.5l-15-27.8c-1.1-2-3.1-3.4-5.4-3.7c-7.3-0.9-15.2-3.4-20.5-7.7l-0.7,0.2l16.7,62.2l13-1.1
	C746.5,658.7,752.8,647,747.7,637.5L747.7,637.5z"/>
<path class="st12" d="M741.4,650.3l-13-0.9l-13-46.3c-3.2-1.2-6.2-2.8-8.6-4.8l-0.7,0.2l16.7,62.2l13-1.1c7.2-0.6,12.3-6,13.5-12.3
	C747.1,649,744.4,650.1,741.4,650.3L741.4,650.3z"/>
<path class="st3" d="M747.7,637.5l-15-27.8c-1.1-2-3.1-3.4-5.4-3.7c-7.3-0.9-15.2-3.4-20.5-7.7l-0.7,0.2l16.7,62.2l13-1.1
	C746.5,658.7,752.8,647,747.7,637.5L747.7,637.5z"/>
<circle class="st13" cx="731.9" cy="642.4" r="7"/>
<circle class="st14" cx="731.9" cy="642.4" r="7"/>
<circle class="st9" cx="284.4" cy="642.7" r="86"/>
<path class="st2" d="M352.2,695.5c4.8-6.1,8.7-12.8,11.6-19.9l-49-28.3c-11.7-6.8-19-19.3-19-32.9v-57c-3.8-0.5-7.6-0.8-11.4-0.8
	c-4,0-7.8,0.3-11.7,0.8v57c0,13.6-7.2,26.1-19,32.9l-48.9,28.2c3,7.1,6.9,13.8,11.6,19.9l48.8-28.2c11.7-6.8,26.2-6.8,37.9,0
	L352.2,695.5L352.2,695.5z"/>
<path class="st4" d="M306.2,662.1c-6.7-3.9-14.3-5.9-22-5.9s-15.3,2-22,5.9l-44.1,25.5c-2.1-3.1-3.9-6.3-5.6-9.6l44.2-25.5
	c13.6-7.8,22-22.4,22-38.1v-51.6c1.9-0.1,3.8-0.2,5.7-0.2c1.8,0,3.6,0.1,5.4,0.2v51.6c0,15.7,8.4,30.2,22,38.1l44.3,25.6
	c-1.6,3.3-3.5,6.5-5.6,9.6L306.2,662.1L306.2,662.1z"/>
<path class="st3" d="M352.2,695.5c4.8-6.1,8.7-12.8,11.6-19.9l-49-28.3c-11.7-6.8-19-19.3-19-32.9v-57c-3.8-0.5-7.6-0.8-11.4-0.8
	c-4,0-7.8,0.3-11.7,0.8v57c0,13.6-7.2,26.1-19,32.9l-48.9,28.2c3,7.1,6.9,13.8,11.6,19.9l48.8-28.2c11.7-6.8,26.2-6.8,37.9,0
	L352.2,695.5L352.2,695.5z"/>
<path class="st4" d="M284.4,556.7c-47.5,0-86,38.5-86,86s38.5,86,86,86s86-38.5,86-86S331.9,556.7,284.4,556.7z M284.4,699.3
	c-31.3,0-56.6-25.4-56.6-56.6s25.4-56.6,56.6-56.6s56.6,25.4,56.6,56.6S315.6,699.3,284.4,699.3z"/>
<path class="st3" d="M284.4,556.7c-47.5,0-86,38.5-86,86s38.5,86,86,86s86-38.5,86-86S331.9,556.7,284.4,556.7z M284.4,699.3
	c-31.3,0-56.6-25.4-56.6-56.6s25.4-56.6,56.6-56.6s56.6,25.4,56.6,56.6S315.6,699.3,284.4,699.3z"/>
<circle class="st3" cx="284.4" cy="642.7" r="86"/>
<path class="st10" d="M360.2,629c0.8,4.5,1.2,9.1,1.2,13.6c0,20.2-7.8,38.7-20.7,52.4 M352.6,607c1.5,2.9,2.9,5.9,4,9"/>
<circle class="st15" cx="284.3" cy="642.6" r="7"/>
<path class="st9" d="M614,530.5L581,619"/>
<path class="st13" d="M546.9,625.1l-10.1,6.4c-11,6.9-23.7,10.6-36.7,10.6h-96.6c-2.9,0-3.5-2.5-3.2-5.5c0.2-1.6,0-5.8-0.3-7.5
	c-1.5-10.9-8.4-18-14.7-18.8v8.2c1.6,5.7,2.6,12.5,2.6,19.8c0,2.4-0.1,4.7-0.3,6.9l0.7,3.6l0,0l3.9,0.7h11v10h100.5V649h6.3
	c17.1-0.1,32.5-9.8,40.1-24.7C549,624.2,547.9,624.5,546.9,625.1L546.9,625.1z"/>
<path class="st14" d="M546.9,625.1l-10.1,6.4c-11,6.9-23.7,10.6-36.7,10.6h-96.6c-2.9,0-3.5-2.5-3.2-5.5c0.2-1.6,0-5.8-0.3-7.5
	c-1.5-10.9-8.4-18-14.7-18.8v8.2c1.6,5.7,2.6,12.5,2.6,19.8c0,2.4-0.1,4.7-0.3,6.9l0.7,3.6l0,0l3.9,0.7h11v10h100.5V649h6.3
	c16.1-0.1,30.7-8.7,38.7-22.2C549.3,625.7,548,624.4,546.9,625.1L546.9,625.1L546.9,625.1z"/>
<path class="st11" d="M630.7,416.7l27-7.2l29,108.2l-27,7.2L630.7,416.7z"/>
<path class="st12" d="M667.7,520.4l-28.4-106l-8.6,2.3l29,108.2l27-7.2l-0.6-2.2L667.7,520.4z"/>
<path class="st12" d="M643.5,446.2c0,0,7.4,5.8,12.7,15.6c8.6,15.9,5.4,35.5,5.4,35.5l-2.8,2.6L643.5,446.2z"/>
<path class="st13" d="M661.6,408.4l-34.8,9.3c-3-9.3-4.1-19.2-4.1-29.3l27.8-7.5C655.5,389.8,659.6,398.9,661.6,408.4z"/>
<path class="st4" d="M661.6,408.4l-34.8,9.3c-3-9.3-4.1-19.2-4.1-29.3l27.8-7.5C655.5,389.8,659.6,398.9,661.6,408.4z"/>
<path d="M637.5,414.4c-2.9-9.1-4-18.9-4.1-28.8l-10.6,2.9c0.1,10,1.2,20,4.1,29.3l34.8-9.3c0-0.2-0.1-0.3-0.1-0.5L637.5,414.4
	L637.5,414.4z"/>
<path class="st3" d="M630.7,416.7l27-7.2l29,108.2l-27,7.2L630.7,416.7z"/>
<path class="st2" d="M682.4,522.1l-18.8,5c-4,1.1-8.2-1.3-9.3-5.3l0,0c-1.1-4,1.3-8.2,5.3-9.3l0,0l18.8-5c4.1-1,8.2,1.4,9.2,5.5
	C688.7,517,686.4,521,682.4,522.1z"/>
<path class="st16" d="M673.6,524.2c-4,1.1-8.2-1.3-9.3-5.3l0,0c-0.9-3.3,0.6-6.7,3.4-8.4l-8,2.1c-4,1.1-6.4,5.3-5.2,9.3
	c1.1,3.9,5.2,6.3,9.1,5.3l18.8-5c0.7-0.2,1.4-0.5,2-0.9L673.6,524.2L673.6,524.2z"/>
<path class="st3" d="M682.4,522.1l-18.8,5c-4,1.1-8.2-1.3-9.3-5.3l0,0l0,0c-1.1-4,1.3-8.2,5.3-9.3l0,0l18.8-5c4-1.1,8.2,1.3,9.3,5.3
	l0,0l0,0C688.9,516.9,686.5,521,682.4,522.1z M661.6,408.4l-34.8,9.3c-3-9.3-4.1-19.2-4.1-29.3l27.8-7.5
	C655.5,389.8,659.6,398.9,661.6,408.4z"/>
<path class="st11" d="M656.2,489l-47.6,130.6c-11.8,32.3-42.5,53.8-76.9,53.8H390.1v-0.3v0.3l-53.5-9.4l-32.5-1.7l-27.7-4.9
	c-5.2-0.9-8.6-5.8-7.7-11l2.2-12.8c0.9-5.2,5.9-8.6,11-7.7l27.7,4.9l31.1,9.6l51.5,9.1c0,0,73.4-0.2,117.8-0.5
	c19.6-0.1,37-12.9,42.9-31.6l16.3-51.4c5.3-12.8,15.5-23,28.2-28.4l16.6-7l27.6-76.6C646.9,458.4,654,468.2,656.2,489L656.2,489z"/>
<path class="st11" d="M309.5,630.8l-27.7-4.9c-5.2-0.9-10.1,2.5-11,7.7l-2.2,12.8c-0.9,5.2,2.5,10.1,7.7,11l27.7,4.9l32.5,1.7
	l53.5,9.4l-0.4-22.4l-5.4-3l-43.6-7.7L309.5,630.8L309.5,630.8z"/>
<path class="st12" d="M608.6,615.2c-11.8,32.3-42.5,53.8-76.9,53.8H390.1v-0.3v0.3l-53.5-9.4l-32.5-1.7l-27.7-4.9
	c-3.8-0.7-6.8-3.5-7.6-7.2l-0.1,0.6c-0.9,5.2,2.5,10.1,7.7,11l27.7,4.9l32.5,1.7l53.5,9.4v-0.3v0.3h141.6
	c34.4,0,65.1-21.5,76.9-53.8L656.2,489c-0.1-1.1-0.3-2.2-0.4-3.3L608.6,615.2z"/>
<path class="st12" d="M274,649.4l2.2-12.8c0.9-5.2,5.9-8.6,11-7.7l27.7,4.9l31.1,9.6l51.5,9.1c0,0,73.4-0.2,117.8-0.5
	c19.6-0.1,37-12.9,42.9-31.6l16.3-51.4c5.3-12.8,15.5-23,28.2-28.4l24-10l23.9-66.3c-1.7-2.3-7.5-9.9-9.1-11.2L614,529.5l-16.6,7
	c-12.7,5.4-22.9,15.6-28.2,28.4l-16.3,51.4c-5.9,18.7-23.3,31.5-42.9,31.6c-44.4,0.3-117.8,0.5-117.8,0.5l-51.5-9.1l-31.1-9.6
	l-27.7-4.9c-5.2-0.9-10.1,2.5-11,7.7l-2.2,12.8c-0.8,4.8,2.1,9.5,6.8,10.8C274,654.2,273.5,651.8,274,649.4z"/>
<path class="st17" d="M389.7,651l-5.4-3l-43.6-7.7l-4.2,23.6l53.5,9.4L389.7,651z"/>
<path class="st3" d="M656.2,489l-47.6,130.6c-11.8,32.3-42.5,53.8-76.9,53.8H390.1v-0.3v0.3l-53.5-9.4l-32.5-1.7l-27.7-4.9
	c-5.2-0.9-8.6-5.8-7.7-11l2.2-12.8c0.9-5.2,5.9-8.6,11-7.7l27.7,4.9l31.1,9.6l51.5,9.1c0,0,73.4-0.2,117.8-0.5
	c19.6-0.1,37-12.9,42.9-31.6l16.3-51.4c5.3-12.8,15.5-23,28.2-28.4l16.6-7l27.6-76.6C646.9,458.4,654,468.2,656.2,489L656.2,489z"/>
<path class="st11" d="M722.8,660.7l-33.8-126c-1.7-6.4-8.3-10.2-14.7-8.5s-10.2,8.3-8.5,14.7L695.9,653c1.5,5.6,6.8,9.3,12.6,8.9
	L722.8,660.7z"/>
<path class="st12" d="M713.5,655.5c-5.8,0.5-11.1-3.2-12.6-8.9l-30.1-112.2c-0.6-2.3-0.5-4.6,0.2-6.8c-4.4,2.7-6.6,8.1-5.2,13.3
	L695.9,653c1.5,5.6,6.8,9.3,12.6,8.9l14.3-1.2l-1.6-5.9L713.5,655.5z"/>
<path class="st3" d="M722.8,660.7l-33.8-126c-1.7-6.4-8.3-10.2-14.7-8.5l0,0c-6.4,1.7-10.2,8.3-8.5,14.7L695.9,653
	c1.5,5.6,6.8,9.3,12.6,8.9L722.8,660.7z"/>
<circle class="st12" cx="286.3" cy="642.6" r="9.5"/>
<circle class="st13" cx="284.3" cy="642.6" r="7"/>
<circle class="st14" cx="284.3" cy="642.6" r="7"/>
<path class="st10" d="M589.9,633.8c-1.4,1.7-2.9,3.3-4.5,4.8 M618.5,563.7c0,0-11.8,35.2-16.8,48.3c-2,5.3-4.5,10.8-7.7,16"/>
<path class="st18" d="M645.2,387.8c0,0,0.3-0.1,1.5,2.8 M648.3,395.1c0,0,2.2,6,2.8,10.1 M668.2,516.2l10.8-3 M677.8,532.2
	c0,0,2.3,0.2,4,1.8 M392,656.2v5.8 M392,666.2v2.8"/>
<path class="st4" d="M618.2,262.9l-25.4,9.2l-6.7-18.3c-2.5-7,1.1-14.8,8.1-17.3c7-2.6,14.8,1.1,17.3,8.1L618.2,262.9z"/>
<circle class="st19" cx="601.2" cy="254.6" r="10.1"/>
<path class="st3" d="M618.2,262.9l-25.4,9.2l-6.7-18.3c-2.5-7,1.1-14.8,8.1-17.3l0,0c7-2.6,14.8,1.1,17.3,8.1L618.2,262.9z"/>
<path class="st20" d="M566.3,213.1c-0.6,2.9,1,5.9,3.8,7c4.1,1.7,9.9,5.1,14.4,11.6c4.5,6.6,7.8,15.7,9.7,21.9
	c1.1,3.7,5.3,5.5,8.7,3.9c2.9-1.4,4.3-4.6,3.3-7.6c-2.6-8.1-8-23.5-13.2-30.7c-4.2-5.8-12.2-9.7-18-12c-3.7-1.4-7.8,0.8-8.5,4.7
	L566.3,213.1L566.3,213.1z"/>
<path class="st2" d="M599,253c-1.9-6.2-5.2-15.3-9.7-21.9c-4.5-6.5-10.3-9.9-14.4-11.6c-2.8-1.1-4.3-4.1-3.8-7l0.2-1.2
	c0.3-1.8,1.4-3.3,3-4.3c-3.5-0.9-7.1,1.3-7.8,4.9l-0.2,1.2c-0.6,2.9,1,5.9,3.8,7c4.1,1.7,9.9,5.1,14.4,11.6
	c4.5,6.6,7.8,15.7,9.7,21.9c1.1,3.7,5.3,5.5,8.7,3.9c0.2-0.1,0.3-0.2,0.5-0.3C601.3,256.7,599.6,255.1,599,253L599,253z"/>
<path class="st3" d="M566.3,213.1c-0.6,2.9,1,5.9,3.8,7c4.1,1.7,9.9,5.1,14.4,11.6c4.5,6.6,7.8,15.7,9.7,21.9
	c1.1,3.7,5.3,5.5,8.7,3.9l0,0c2.9-1.4,4.3-4.6,3.3-7.6c-2.6-8.1-8-23.5-13.2-30.7c-4.2-5.8-12.2-9.7-18-12c-3.7-1.4-7.8,0.8-8.5,4.7
	L566.3,213.1L566.3,213.1z"/>
<path class="st3" d="M602.6,212.2l-1.4,10.3l-15.5-2.1l1.4-10.3L602.6,212.2z"/>
<path class="st21" d="M602.7,212.3l-1.5,10.3l-15.5-2.3l1.5-10.3L602.7,212.3z"/>
<path class="st4" d="M588.6,217.5c0-7.9-6.4-14.4-14.4-14.4c-1.8,0-3.4,0.3-5,0.9l-19.1,5.4l8,28.7l18.7-6.6
	C583.5,230.3,588.6,224.5,588.6,217.5L588.6,217.5z"/>
<path class="st11" d="M559.3,213.2l19.1-5.4c1.6-0.6,3.3-0.9,5-0.9c0.2,0,0.3,0,0.5,0c-2.6-2.3-5.9-3.7-9.6-3.7
	c-1.8,0-3.4,0.3-5,0.9l-19.1,5.4l8,28.7l7.4-2.6L559.3,213.2L559.3,213.2z"/>
<path class="st3" d="M588.6,217.5c0-7.9-6.4-14.4-14.4-14.4c-1.8,0-3.4,0.3-5,0.9l-19.1,5.4l8,28.7l18.7-6.6
	C583.5,230.3,588.6,224.5,588.6,217.5L588.6,217.5z"/>
<circle class="st4" cx="549.7" cy="225.4" r="17.8"/>
<circle class="st6" cx="549.7" cy="225.4" r="17.8"/>
<ellipse transform="matrix(0.2092 -0.9779 0.9779 0.2092 272.6042 752.2177)" class="st22" cx="601.4" cy="207.6" rx="1.8" ry="3.1"/>
<path class="st3" d="M599.8,212.4l1.5-4.2"/>
<path class="st23" d="M592.7,212.4l6.7,1.1"/>
<path class="st24" d="M292.4,632.6l9,1.7 M304.7,634.8l4.5,0.8"/>
<text transform="matrix(0.7915 0 0 1 268.5678 469.65)" class="st1 st25 st26">RideRentals</text>
</svg>
